<?xml version='1.0' encoding='UTF-8' standalone='no'?>
<!-- Created with Fritzing (http://www.fritzing.org/) -->
<svg xmlns="http://www.w3.org/2000/svg" width="2.1014in" x="0in" version="1.2" y="0in"  height="2.725in" viewBox="0 0 151.301 196.2" baseProfile="tiny" xmlns:svg="http://www.w3.org/2000/svg">
 <g transform="matrix(-1, 0, 0, 1, 151.301, 0)">
  <g partID="249410">
   <g transform="translate(151.301,0)">
    <g transform="matrix(0,1,-1,0,0,0)">
     <g id="board">
      <path fill="none" stroke="black" fill-opacity="0.5" id="boardoutline" stroke-width="0.5" d="M186.956,36.4096L186.956,4.3672L183.389,0.8008L0.800042,0.8L0.801642,150.501L186.958,150.501L186.958,144.674L195.4,136.232L195.4,43.5456L186.956,36.4096z"/>
     </g>
    </g>
   </g>
  </g>
  <g partID="347130">
   <g transform="translate(3.744,3.744)">
    <g  id="groundplane">
     <polygon fill="black" points="0,0,0,1.728,133.92,1.728,133.92,1.872,134.352,1.872,134.352,2.016,134.64,2.016,134.64,2.16,134.784,2.16,134.784,2.304,135.072,2.304,135.072,2.448,135.216,2.448,135.216,2.592,135.36,2.592,135.36,2.736,135.504,2.736,135.504,3.024,135.648,3.024,135.648,3.312,135.792,3.312,135.792,3.6,135.936,3.6,135.936,44.784,141.408,44.784,141.408,44.928,141.84,44.928,141.84,45.072,142.128,45.072,142.128,45.216,142.416,45.216,142.416,45.36,143.856,45.36,143.856,0"  stroke="none" stroke-width="0"/>
     <polygon fill="black" points="0,1.728,0,7.056,47.232,7.056,47.232,7.2,47.952,7.2,47.952,7.344,48.24,7.344,48.24,7.488,48.672,7.488,48.672,7.632,48.816,7.632,48.816,7.776,49.104,7.776,49.104,7.92,49.248,7.92,49.248,8.064,49.536,8.064,49.536,8.208,49.68,8.208,49.68,8.352,49.824,8.352,49.824,8.496,49.968,8.496,49.968,8.64,50.112,8.64,50.112,8.784,50.256,8.784,50.256,8.928,61.92,8.928,61.92,9.072,62.352,9.072,62.352,9.216,62.64,9.216,62.64,9.36,62.784,9.36,62.784,9.504,63.072,9.504,63.072,9.648,63.216,9.648,63.216,9.792,63.36,9.792,63.36,9.936,63.504,9.936,63.504,10.224,63.648,10.224,63.648,10.512,63.792,10.512,63.792,10.8,63.936,10.8,63.936,14.256,119.232,14.256,119.232,14.4,119.952,14.4,119.952,14.544,120.24,14.544,120.24,14.688,120.672,14.688,120.672,14.832,120.816,14.832,120.816,14.976,122.4,14.976,122.4,4.032,122.544,4.032,122.544,3.456,122.688,3.456,122.688,3.168,122.832,3.168,122.832,2.88,122.976,2.88,122.976,2.736,123.12,2.736,123.12,2.592,123.264,2.592,123.264,2.448,123.408,2.448,123.408,2.304,123.552,2.304,123.552,2.16,123.84,2.16,123.84,2.016,124.128,2.016,124.128,1.872,124.56,1.872,124.56,1.728"  stroke="none" stroke-width="0"/>
     <polygon fill="black" points="0,7.056,0,31.68,16.848,31.68,16.848,31.536,16.128,31.536,16.128,31.392,15.696,31.392,15.696,31.248,15.408,31.248,15.408,31.104,15.12,31.104,15.12,30.96,14.832,30.96,14.832,30.816,14.688,30.816,14.688,30.672,14.544,30.672,14.544,30.528,14.256,30.528,14.256,30.384,14.112,30.384,14.112,30.24,13.968,30.24,13.968,30.096,13.824,30.096,13.824,29.952,13.68,29.952,13.68,29.808,13.536,29.808,13.536,29.52,13.392,29.52,13.392,29.376,13.248,29.376,13.248,29.088,13.104,29.088,13.104,28.944,12.96,28.944,12.96,28.656,12.816,28.656,12.816,28.224,12.672,28.224,12.672,27.792,12.528,27.792,12.528,25.2,12.672,25.2,12.672,24.768,12.816,24.768,12.816,24.336,12.96,24.336,12.96,24.048,13.104,24.048,13.104,23.904,13.248,23.904,13.248,23.616,13.392,23.616,13.392,23.472,13.536,23.472,13.536,23.328,13.68,23.328,13.68,23.184,13.824,23.184,13.824,22.896,13.968,22.896,13.968,22.752,14.112,22.752,14.112,22.608,14.4,22.608,14.4,22.464,14.544,22.464,14.544,22.32,14.688,22.32,14.688,22.176,14.976,22.176,14.976,22.032,15.12,22.032,15.12,21.888,15.408,21.888,15.408,21.744,15.696,21.744,15.696,21.6,16.128,21.6,16.128,21.456,17.856,21.456,17.856,19.872,17.712,19.872,17.712,19.584,17.568,19.584,17.568,19.296,17.424,19.296,17.424,19.008,17.28,19.008,17.28,18.72,17.136,18.72,17.136,18.432,16.992,18.432,16.992,18.144,16.848,18.144,16.848,17.856,16.704,17.856,16.704,17.568,16.56,17.568,16.56,17.28,16.416,17.28,16.416,17.136,12.672,17.136,12.672,7.056"  stroke="none" stroke-width="0"/>
     <polygon fill="black" points="22.608,7.056,22.608,14.832,22.752,14.832,22.752,15.12,22.896,15.12,22.896,15.408,23.04,15.408,23.04,15.696,23.184,15.696,23.184,15.984,23.328,15.984,23.328,16.128,42.048,16.128,42.048,14.544,41.904,14.544,41.904,14.256,41.76,14.256,41.76,13.968,41.616,13.968,41.616,13.536,41.472,13.536,41.472,10.656,41.616,10.656,41.616,10.224,41.76,10.224,41.76,9.936,41.904,9.936,41.904,9.648,42.048,9.648,42.048,9.504,42.192,9.504,42.192,9.216,42.336,9.216,42.336,9.072,42.48,9.072,42.48,8.928,42.624,8.928,42.624,8.784,42.768,8.784,42.768,8.496,43.056,8.496,43.056,8.352,43.2,8.352,43.2,8.208,43.344,8.208,43.344,8.064,43.488,8.064,43.488,7.92,43.776,7.92,43.776,7.776,43.92,7.776,43.92,7.632,44.208,7.632,44.208,7.488,44.496,7.488,44.496,7.344,44.928,7.344,44.928,7.2,45.504,7.2,45.504,7.056"  stroke="none" stroke-width="0"/>
     <polygon fill="black" points="63.936,14.256,63.936,15.12,65.376,15.12,65.376,14.976,65.52,14.976,65.52,14.832,65.808,14.832,65.808,14.688,66.096,14.688,66.096,14.544,66.528,14.544,66.528,14.4,67.104,14.4,67.104,14.256"  stroke="none" stroke-width="0"/>
     <polygon fill="black" points="68.832,14.256,68.832,14.4,69.552,14.4,69.552,14.544,69.84,14.544,69.84,14.688,70.272,14.688,70.272,14.832,70.416,14.832,70.416,14.976,70.704,14.976,70.704,15.12,70.848,15.12,70.848,15.264,72.288,15.264,72.288,15.12,72.576,15.12,72.576,14.976,72.72,14.976,72.72,14.832,73.008,14.832,73.008,14.688,73.296,14.688,73.296,14.544,73.728,14.544,73.728,14.4,74.304,14.4,74.304,14.256"  stroke="none" stroke-width="0"/>
     <polygon fill="black" points="76.032,14.256,76.032,14.4,76.752,14.4,76.752,14.544,77.04,14.544,77.04,14.688,77.472,14.688,77.472,14.832,77.616,14.832,77.616,14.976,77.904,14.976,77.904,15.12,78.048,15.12,78.048,15.264,79.488,15.264,79.488,15.12,79.776,15.12,79.776,14.976,79.92,14.976,79.92,14.832,80.208,14.832,80.208,14.688,80.496,14.688,80.496,14.544,80.928,14.544,80.928,14.4,81.504,14.4,81.504,14.256"  stroke="none" stroke-width="0"/>
     <polygon fill="black" points="83.232,14.256,83.232,14.4,83.952,14.4,83.952,14.544,84.24,14.544,84.24,14.688,84.672,14.688,84.672,14.832,84.816,14.832,84.816,14.976,85.104,14.976,85.104,15.12,85.248,15.12,85.248,15.264,86.688,15.264,86.688,15.12,86.976,15.12,86.976,14.976,87.12,14.976,87.12,14.832,87.408,14.832,87.408,14.688,87.696,14.688,87.696,14.544,88.128,14.544,88.128,14.4,88.704,14.4,88.704,14.256"  stroke="none" stroke-width="0"/>
     <polygon fill="black" points="90.432,14.256,90.432,14.4,91.152,14.4,91.152,14.544,91.44,14.544,91.44,14.688,91.872,14.688,91.872,14.832,92.016,14.832,92.016,14.976,92.304,14.976,92.304,15.12,92.448,15.12,92.448,15.264,93.888,15.264,93.888,15.12,94.176,15.12,94.176,14.976,94.32,14.976,94.32,14.832,94.608,14.832,94.608,14.688,94.896,14.688,94.896,14.544,95.328,14.544,95.328,14.4,95.904,14.4,95.904,14.256"  stroke="none" stroke-width="0"/>
     <polygon fill="black" points="97.632,14.256,97.632,14.4,98.352,14.4,98.352,14.544,98.64,14.544,98.64,14.688,99.072,14.688,99.072,14.832,99.216,14.832,99.216,14.976,99.504,14.976,99.504,15.12,99.648,15.12,99.648,15.264,101.088,15.264,101.088,15.12,101.376,15.12,101.376,14.976,101.52,14.976,101.52,14.832,101.808,14.832,101.808,14.688,102.096,14.688,102.096,14.544,102.528,14.544,102.528,14.4,103.104,14.4,103.104,14.256"  stroke="none" stroke-width="0"/>
     <polygon fill="black" points="104.832,14.256,104.832,14.4,105.552,14.4,105.552,14.544,105.84,14.544,105.84,14.688,106.272,14.688,106.272,14.832,106.416,14.832,106.416,14.976,106.704,14.976,106.704,15.12,106.848,15.12,106.848,15.264,108.288,15.264,108.288,15.12,108.576,15.12,108.576,14.976,108.72,14.976,108.72,14.832,109.008,14.832,109.008,14.688,109.296,14.688,109.296,14.544,109.728,14.544,109.728,14.4,110.304,14.4,110.304,14.256"  stroke="none" stroke-width="0"/>
     <polygon fill="black" points="112.032,14.256,112.032,14.4,112.752,14.4,112.752,14.544,113.04,14.544,113.04,14.688,113.472,14.688,113.472,14.832,113.616,14.832,113.616,14.976,113.904,14.976,113.904,15.12,114.048,15.12,114.048,15.264,115.488,15.264,115.488,15.12,115.776,15.12,115.776,14.976,115.92,14.976,115.92,14.832,116.208,14.832,116.208,14.688,116.496,14.688,116.496,14.544,116.928,14.544,116.928,14.4,117.504,14.4,117.504,14.256"  stroke="none" stroke-width="0"/>
     <polygon fill="black" points="20.304,30.816,20.304,30.96,20.16,30.96,20.16,31.104,19.872,31.104,19.872,31.248,19.584,31.248,19.584,31.392,19.152,31.392,19.152,31.536,18.432,31.536,18.432,31.68,24.048,31.68,24.048,31.536,23.328,31.536,23.328,31.392,22.896,31.392,22.896,31.248,22.608,31.248,22.608,31.104,22.32,31.104,22.32,30.96,22.032,30.96,22.032,30.816"  stroke="none" stroke-width="0"/>
     <polygon fill="black" points="0,31.68,0,31.824,28.8,31.824,28.8,31.68"  stroke="none" stroke-width="0"/>
     <polygon fill="black" points="0,31.68,0,31.824,28.8,31.824,28.8,31.68"  stroke="none" stroke-width="0"/>
     <polygon fill="black" points="0,31.824,0,72.144,1.584,72.144,1.584,72,2.16,72,2.16,71.856,4.752,71.856,4.752,64.08,7.2,64.08,7.2,47.232,7.344,47.232,7.344,46.656,7.488,46.656,7.488,46.368,7.632,46.368,7.632,46.08,7.776,46.08,7.776,45.936,7.92,45.936,7.92,45.792,8.064,45.792,8.064,45.648,8.208,45.648,8.208,45.504,8.352,45.504,8.352,45.36,8.64,45.36,8.64,45.216,8.928,45.216,8.928,45.072,9.36,45.072,9.36,44.928,28.8,44.928,28.8,31.824"  stroke="none" stroke-width="0"/>
     <polygon fill="black" points="135.936,44.784,135.936,45.504,137.376,45.504,137.376,45.36,137.664,45.36,137.664,45.216,137.808,45.216,137.808,45.072,138.24,45.072,138.24,44.928,138.672,44.928,138.672,44.784"  stroke="none" stroke-width="0"/>
     <g  id="connector0pad">
      <circle fill="black" cx="64.8786"  cy="6.417" stroke="none" r="2.7" stroke-width="0"/>
     </g>
    </g>
   </g>
  </g>
  <g partID="347140">
   <g transform="translate(37.872,26.208)">
    <g  id="groundplane">
     <polygon fill="black" points="3.024,0,3.024,9.072,2.88,9.072,2.88,9.216,1.008,9.216,1.008,26.928,0.864,26.928,0.864,27.216,0.72,27.216,0.72,27.504,0.576,27.504,0.576,27.792,0.432,27.792,0.432,27.936,0.288,27.936,0.288,28.08,0.144,28.08,0.144,28.224,0,28.224,0,29.664,6.192,29.664,6.192,29.808,6.624,29.808,6.624,29.952,6.912,29.952,6.912,30.096,7.056,30.096,7.056,30.24,7.344,30.24,7.344,30.384,7.488,30.384,7.488,30.528,7.632,30.528,7.632,30.672,7.776,30.672,7.776,30.96,7.92,30.96,7.92,31.248,8.064,31.248,8.064,31.536,8.208,31.536,8.208,63.792,10.224,63.792,10.224,72.864,13.392,72.864,13.392,73.008,13.824,73.008,13.824,73.152,14.112,73.152,14.112,73.296,14.256,73.296,14.256,73.44,14.544,73.44,14.544,73.584,14.688,73.584,14.688,73.728,14.832,73.728,14.832,73.872,16.272,73.872,16.272,0"  stroke="none" stroke-width="0"/>
     <g  id="connector0pad">
      <circle fill="black" cx="6.573"  cy="5.86367" stroke="none" r="2.7" stroke-width="0"/>
     </g>
    </g>
   </g>
  </g>
  <g partID="347150">
   <g transform="translate(60.48,27.216)">
    <g  id="groundplane">
     <polygon fill="black" points="6.768,0,6.768,0.144,8.496,0.144,8.496,0"  stroke="none" stroke-width="0"/>
     <polygon fill="black" points="13.968,0,13.968,0.144,13.824,0.144,13.824,0.288,13.536,0.288,13.536,0.432,13.248,0.432,13.248,0.576,12.816,0.576,12.816,0.72,12.384,0.72,12.384,0.864,17.424,0.864,17.424,0.72,16.848,0.72,16.848,0.576,16.56,0.576,16.56,0.432,16.272,0.432,16.272,0.288,15.984,0.288,15.984,0.144,15.696,0.144,15.696,0"  stroke="none" stroke-width="0"/>
     <polygon fill="black" points="21.168,0,21.168,0.144,21.024,0.144,21.024,0.288,20.736,0.288,20.736,0.432,20.448,0.432,20.448,0.576,20.016,0.576,20.016,0.72,19.584,0.72,19.584,0.864,24.624,0.864,24.624,0.72,24.048,0.72,24.048,0.576,23.76,0.576,23.76,0.432,23.472,0.432,23.472,0.288,23.184,0.288,23.184,0.144,22.896,0.144,22.896,0"  stroke="none" stroke-width="0"/>
     <polygon fill="black" points="28.368,0,28.368,0.144,28.224,0.144,28.224,0.288,27.936,0.288,27.936,0.432,27.648,0.432,27.648,0.576,27.216,0.576,27.216,0.72,26.784,0.72,26.784,0.864,31.824,0.864,31.824,0.72,31.248,0.72,31.248,0.576,30.96,0.576,30.96,0.432,30.672,0.432,30.672,0.288,30.384,0.288,30.384,0.144,30.096,0.144,30.096,0"  stroke="none" stroke-width="0"/>
     <polygon fill="black" points="35.568,0,35.568,0.144,35.424,0.144,35.424,0.288,35.136,0.288,35.136,0.432,34.848,0.432,34.848,0.576,34.416,0.576,34.416,0.72,33.984,0.72,33.984,0.864,39.024,0.864,39.024,0.72,38.448,0.72,38.448,0.576,38.16,0.576,38.16,0.432,37.872,0.432,37.872,0.288,37.584,0.288,37.584,0.144,37.296,0.144,37.296,0"  stroke="none" stroke-width="0"/>
     <polygon fill="black" points="42.768,0,42.768,0.144,42.624,0.144,42.624,0.288,42.336,0.288,42.336,0.432,42.048,0.432,42.048,0.576,41.616,0.576,41.616,0.72,41.184,0.72,41.184,0.864,46.224,0.864,46.224,0.72,45.648,0.72,45.648,0.576,45.36,0.576,45.36,0.432,45.072,0.432,45.072,0.288,44.784,0.288,44.784,0.144,44.496,0.144,44.496,0"  stroke="none" stroke-width="0"/>
     <polygon fill="black" points="49.968,0,49.968,0.144,49.824,0.144,49.824,0.288,49.536,0.288,49.536,0.432,49.248,0.432,49.248,0.576,48.816,0.576,48.816,0.72,48.384,0.72,48.384,0.864,53.424,0.864,53.424,0.72,52.848,0.72,52.848,0.576,52.56,0.576,52.56,0.432,52.272,0.432,52.272,0.288,51.984,0.288,51.984,0.144,51.696,0.144,51.696,0"  stroke="none" stroke-width="0"/>
     <polygon fill="black" points="57.168,0,57.168,0.144,57.024,0.144,57.024,0.288,56.736,0.288,56.736,0.432,56.448,0.432,56.448,0.576,56.016,0.576,56.016,0.72,55.584,0.72,55.584,0.864,60.624,0.864,60.624,0.72,60.048,0.72,60.048,0.576,59.76,0.576,59.76,0.432,59.472,0.432,59.472,0.288,59.184,0.288,59.184,0.144,58.896,0.144,58.896,0"  stroke="none" stroke-width="0"/>
     <polygon fill="black" points="64.368,0,64.368,0.144,64.224,0.144,64.224,0.288,63.936,0.288,63.936,0.432,63.648,0.432,63.648,0.576,63.216,0.576,63.216,0.72,62.784,0.72,62.784,0.864,67.824,0.864,67.824,0.72,67.248,0.72,67.248,0.576,66.96,0.576,66.96,0.432,66.672,0.432,66.672,0.288,66.384,0.288,66.384,0.144,66.096,0.144,66.096,0"  stroke="none" stroke-width="0"/>
     <polygon fill="black" points="0,0.144,0,0.864,3.024,0.864,3.024,0.72,2.448,0.72,2.448,0.576,2.16,0.576,2.16,0.432,1.872,0.432,1.872,0.288,1.584,0.288,1.584,0.144"  stroke="none" stroke-width="0"/>
     <polygon fill="black" points="6.624,0.144,6.624,0.288,6.336,0.288,6.336,0.432,6.048,0.432,6.048,0.576,5.616,0.576,5.616,0.72,5.184,0.72,5.184,0.864,10.224,0.864,10.224,0.72,9.648,0.72,9.648,0.576,9.36,0.576,9.36,0.432,9.072,0.432,9.072,0.288,8.784,0.288,8.784,0.144"  stroke="none" stroke-width="0"/>
     <polygon fill="black" points="71.424,0.144,71.424,0.288,71.136,0.288,71.136,0.432,70.848,0.432,70.848,0.576,70.416,0.576,70.416,0.72,69.984,0.72,69.984,0.864,72.864,0.864,72.864,0.144"  stroke="none" stroke-width="0"/>
     <polygon fill="black" points="0,0.864,0,1.008,72.864,1.008,72.864,0.864"  stroke="none" stroke-width="0"/>
     <polygon fill="black" points="0,0.864,0,1.008,72.864,1.008,72.864,0.864"  stroke="none" stroke-width="0"/>
     <polygon fill="black" points="0,0.864,0,1.008,72.864,1.008,72.864,0.864"  stroke="none" stroke-width="0"/>
     <polygon fill="black" points="0,0.864,0,1.008,72.864,1.008,72.864,0.864"  stroke="none" stroke-width="0"/>
     <polygon fill="black" points="0,0.864,0,1.008,72.864,1.008,72.864,0.864"  stroke="none" stroke-width="0"/>
     <polygon fill="black" points="0,0.864,0,1.008,72.864,1.008,72.864,0.864"  stroke="none" stroke-width="0"/>
     <polygon fill="black" points="0,0.864,0,1.008,72.864,1.008,72.864,0.864"  stroke="none" stroke-width="0"/>
     <polygon fill="black" points="0,0.864,0,1.008,72.864,1.008,72.864,0.864"  stroke="none" stroke-width="0"/>
     <polygon fill="black" points="0,0.864,0,1.008,72.864,1.008,72.864,0.864"  stroke="none" stroke-width="0"/>
     <polygon fill="black" points="0,0.864,0,1.008,72.864,1.008,72.864,0.864"  stroke="none" stroke-width="0"/>
     <polygon fill="black" points="0,0.864,0,1.008,72.864,1.008,72.864,0.864"  stroke="none" stroke-width="0"/>
     <polygon fill="black" points="0,1.008,0,12.384,69.696,12.384,69.696,12.528,70.416,12.528,70.416,12.672,70.704,12.672,70.704,12.816,71.136,12.816,71.136,12.96,71.28,12.96,71.28,13.104,72.864,13.104,72.864,1.008"  stroke="none" stroke-width="0"/>
     <polygon fill="black" points="12.096,12.384,12.096,12.528,12.816,12.528,12.816,12.672,13.104,12.672,13.104,12.816,13.536,12.816,13.536,12.96,13.68,12.96,13.68,13.104,13.968,13.104,13.968,13.248,14.112,13.248,14.112,13.392,15.552,13.392,15.552,13.248,15.84,13.248,15.84,13.104,15.984,13.104,15.984,12.96,16.272,12.96,16.272,12.816,16.56,12.816,16.56,12.672,16.992,12.672,16.992,12.528,17.568,12.528,17.568,12.384"  stroke="none" stroke-width="0"/>
     <polygon fill="black" points="19.296,12.384,19.296,12.528,20.016,12.528,20.016,12.672,20.304,12.672,20.304,12.816,20.736,12.816,20.736,12.96,20.88,12.96,20.88,13.104,21.168,13.104,21.168,13.248,21.312,13.248,21.312,13.392,22.752,13.392,22.752,13.248,23.04,13.248,23.04,13.104,23.184,13.104,23.184,12.96,23.472,12.96,23.472,12.816,23.76,12.816,23.76,12.672,24.192,12.672,24.192,12.528,24.768,12.528,24.768,12.384"  stroke="none" stroke-width="0"/>
     <polygon fill="black" points="26.496,12.384,26.496,12.528,27.216,12.528,27.216,12.672,27.504,12.672,27.504,12.816,27.936,12.816,27.936,12.96,28.08,12.96,28.08,13.104,28.368,13.104,28.368,13.248,28.512,13.248,28.512,13.392,29.952,13.392,29.952,13.248,30.24,13.248,30.24,13.104,30.384,13.104,30.384,12.96,30.672,12.96,30.672,12.816,30.96,12.816,30.96,12.672,31.392,12.672,31.392,12.528,31.968,12.528,31.968,12.384"  stroke="none" stroke-width="0"/>
     <polygon fill="black" points="33.696,12.384,33.696,12.528,34.416,12.528,34.416,12.672,34.704,12.672,34.704,12.816,35.136,12.816,35.136,12.96,35.28,12.96,35.28,13.104,35.568,13.104,35.568,13.248,35.712,13.248,35.712,13.392,37.152,13.392,37.152,13.248,37.44,13.248,37.44,13.104,37.584,13.104,37.584,12.96,37.872,12.96,37.872,12.816,38.16,12.816,38.16,12.672,38.592,12.672,38.592,12.528,39.168,12.528,39.168,12.384"  stroke="none" stroke-width="0"/>
     <polygon fill="black" points="40.896,12.384,40.896,12.528,41.616,12.528,41.616,12.672,41.904,12.672,41.904,12.816,42.336,12.816,42.336,12.96,42.48,12.96,42.48,13.104,42.768,13.104,42.768,13.248,42.912,13.248,42.912,13.392,44.352,13.392,44.352,13.248,44.64,13.248,44.64,13.104,44.784,13.104,44.784,12.96,45.072,12.96,45.072,12.816,45.36,12.816,45.36,12.672,45.792,12.672,45.792,12.528,46.368,12.528,46.368,12.384"  stroke="none" stroke-width="0"/>
     <polygon fill="black" points="48.096,12.384,48.096,12.528,48.816,12.528,48.816,12.672,49.104,12.672,49.104,12.816,49.536,12.816,49.536,12.96,49.68,12.96,49.68,13.104,49.968,13.104,49.968,13.248,50.112,13.248,50.112,13.392,51.552,13.392,51.552,13.248,51.84,13.248,51.84,13.104,51.984,13.104,51.984,12.96,52.272,12.96,52.272,12.816,52.56,12.816,52.56,12.672,52.992,12.672,52.992,12.528,53.568,12.528,53.568,12.384"  stroke="none" stroke-width="0"/>
     <polygon fill="black" points="55.296,12.384,55.296,12.528,56.016,12.528,56.016,12.672,56.304,12.672,56.304,12.816,56.736,12.816,56.736,12.96,56.88,12.96,56.88,13.104,57.168,13.104,57.168,13.248,57.312,13.248,57.312,13.392,58.752,13.392,58.752,13.248,59.04,13.248,59.04,13.104,59.184,13.104,59.184,12.96,59.472,12.96,59.472,12.816,59.76,12.816,59.76,12.672,60.192,12.672,60.192,12.528,60.768,12.528,60.768,12.384"  stroke="none" stroke-width="0"/>
     <polygon fill="black" points="62.496,12.384,62.496,12.528,63.216,12.528,63.216,12.672,63.504,12.672,63.504,12.816,63.936,12.816,63.936,12.96,64.08,12.96,64.08,13.104,64.368,13.104,64.368,13.248,64.512,13.248,64.512,13.392,65.952,13.392,65.952,13.248,66.24,13.248,66.24,13.104,66.384,13.104,66.384,12.96,66.672,12.96,66.672,12.816,66.96,12.816,66.96,12.672,67.392,12.672,67.392,12.528,67.968,12.528,67.968,12.384"  stroke="none" stroke-width="0"/>
     <g  id="connector0pad">
      <circle fill="black" cx="5.82633"  cy="5.4666" stroke="none" r="2.7" stroke-width="0"/>
     </g>
    </g>
   </g>
  </g>
  <g partID="347160">
   <g transform="translate(17.28,62.208)">
    <g  id="groundplane">
     <g  id="connector0pad">
      <polygon fill="black" points="0,0,0,5.616,19.584,5.616,19.584,5.76,20.16,5.76,20.16,5.904,20.592,5.904,20.592,6.048,20.88,6.048,20.88,6.192,22.464,6.192,22.464,0"  stroke="none" stroke-width="0"/>
      <polygon fill="black" points="2.448,5.616,2.448,12.672,5.76,12.672,5.76,12.816,6.192,12.816,6.192,12.96,6.48,12.96,6.48,13.104,6.768,13.104,6.768,13.248,7.056,13.248,7.056,13.392,7.344,13.392,7.344,13.536,7.488,13.536,7.488,13.68,7.632,13.68,7.632,13.824,7.776,13.824,7.776,13.968,7.92,13.968,7.92,14.112,8.064,14.112,8.064,14.256,8.208,14.256,8.208,14.4,8.352,14.4,8.352,14.544,8.496,14.544,8.496,14.688,8.64,14.688,8.64,14.976,8.784,14.976,8.784,15.12,8.928,15.12,8.928,15.408,9.072,15.408,9.072,15.696,9.216,15.696,9.216,16.128,9.36,16.128,9.36,16.704,9.504,16.704,9.504,18.432,9.648,18.432,9.648,18.576,11.088,18.576,11.088,18.432,11.232,18.432,11.232,18.144,11.376,18.144,11.376,17.856,11.52,17.856,11.52,17.568,11.664,17.568,11.664,17.28,11.808,17.28,11.808,16.992,11.952,16.992,11.952,16.704,12.096,16.704,12.096,16.416,12.24,16.416,12.24,16.128,12.384,16.128,12.384,15.84,12.528,15.84,12.528,15.552,12.672,15.552,12.672,15.264,12.816,15.264,12.816,14.976,12.96,14.976,12.96,14.688,13.104,14.688,13.104,12.96,12.96,12.96,12.96,12.24,12.816,12.24,12.816,10.224,12.96,10.224,12.96,9.648,13.104,9.648,13.104,9.216,13.248,9.216,13.248,8.928,13.392,8.928,13.392,8.64,13.536,8.64,13.536,8.352,13.68,8.352,13.68,8.064,13.824,8.064,13.824,7.92,13.968,7.92,13.968,7.776,14.112,7.776,14.112,7.632,14.256,7.632,14.256,7.488,14.4,7.488,14.4,7.2,14.544,7.2,14.544,7.056,14.832,7.056,14.832,6.912,14.976,6.912,14.976,6.768,15.12,6.768,15.12,6.624,15.264,6.624,15.264,6.48,15.552,6.48,15.552,6.336,15.84,6.336,15.84,6.192,15.984,6.192,15.984,6.048,16.416,6.048,16.416,5.904,16.704,5.904,16.704,5.76,17.28,5.76,17.28,5.616"  stroke="none" stroke-width="0"/>
     </g>
    </g>
   </g>
  </g>
  <g partID="347170">
   <g transform="translate(60.48,64.08)">
    <g  id="groundplane">
     <polygon fill="black" points="0,0,0,18.72,69.696,18.72,69.696,18.864,70.416,18.864,70.416,19.008,70.704,19.008,70.704,19.152,71.136,19.152,71.136,19.296,71.28,19.296,71.28,19.44,71.568,19.44,71.568,19.584,71.712,19.584,71.712,19.728,72,19.728,72,19.872,72.144,19.872,72.144,20.016,72.288,20.016,72.288,20.16,72.432,20.16,72.432,20.304,72.576,20.304,72.576,20.448,72.72,20.448,72.72,20.592,72.864,20.592,72.864,20.88,73.008,20.88,73.008,21.024,73.152,21.024,73.152,21.168,73.296,21.168,73.296,21.456,73.44,21.456,73.44,21.744,73.584,21.744,73.584,22.176,73.728,22.176,73.728,22.608,73.872,22.608,73.872,24.912,73.728,24.912,73.728,25.488,73.584,25.488,73.584,25.776,73.44,25.776,73.44,26.064,73.296,26.064,73.296,26.352,73.152,26.352,73.152,26.496,73.008,26.496,73.008,26.784,72.864,26.784,72.864,26.928,72.72,26.928,72.72,27.072,72.576,27.072,72.576,27.216,72.432,27.216,72.432,27.36,72.288,27.36,72.288,27.504,72.144,27.504,72.144,27.648,72,27.648,72,29.952,78.912,29.952,78.912,28.368,78.768,28.368,78.768,28.224,78.624,28.224,78.624,27.792,78.48,27.792,78.48,27.504,78.336,27.504,78.336,26.928,78.192,26.928,78.192,25.056,78.336,25.056,78.336,24.336,78.48,24.336,78.48,24.048,78.624,24.048,78.624,23.76,78.768,23.76,78.768,23.472,78.912,23.472,78.912,23.184,79.056,23.184,79.056,23.04,79.2,23.04,79.2,21.6,79.056,21.6,79.056,21.456,78.912,21.456,78.912,21.168,78.768,21.168,78.768,21.024,78.624,21.024,78.624,20.592,78.48,20.592,78.48,20.304,78.336,20.304,78.336,19.728,78.192,19.728,78.192,17.856,78.336,17.856,78.336,17.136,78.48,17.136,78.48,16.848,78.624,16.848,78.624,16.56,78.768,16.56,78.768,16.272,78.912,16.272,78.912,14.688,74.88,14.688,74.88,14.544,74.448,14.544,74.448,14.4,74.16,14.4,74.16,14.256,74.016,14.256,74.016,14.112,73.872,14.112,73.872,13.968,73.584,13.968,73.584,13.68,73.44,13.68,73.44,13.536,73.296,13.536,73.296,13.248,73.152,13.248,73.152,12.96,73.008,12.96,73.008,12.528,72.864,12.528,72.864,0"  stroke="none" stroke-width="0"/>
     <polygon fill="black" points="0,18.72,0,19.584,1.44,19.584,1.44,19.44,1.584,19.44,1.584,19.296,1.872,19.296,1.872,19.152,2.16,19.152,2.16,19.008,2.592,19.008,2.592,18.864,3.168,18.864,3.168,18.72"  stroke="none" stroke-width="0"/>
     <polygon fill="black" points="4.896,18.72,4.896,18.864,5.616,18.864,5.616,19.008,5.904,19.008,5.904,19.152,6.336,19.152,6.336,19.296,6.48,19.296,6.48,19.44,6.768,19.44,6.768,19.584,6.912,19.584,6.912,19.728,8.352,19.728,8.352,19.584,8.64,19.584,8.64,19.44,8.784,19.44,8.784,19.296,9.072,19.296,9.072,19.152,9.36,19.152,9.36,19.008,9.792,19.008,9.792,18.864,10.368,18.864,10.368,18.72"  stroke="none" stroke-width="0"/>
     <polygon fill="black" points="12.096,18.72,12.096,18.864,12.816,18.864,12.816,19.008,13.104,19.008,13.104,19.152,13.536,19.152,13.536,19.296,13.68,19.296,13.68,19.44,13.968,19.44,13.968,19.584,14.112,19.584,14.112,19.728,15.552,19.728,15.552,19.584,15.84,19.584,15.84,19.44,15.984,19.44,15.984,19.296,16.272,19.296,16.272,19.152,16.56,19.152,16.56,19.008,16.992,19.008,16.992,18.864,17.568,18.864,17.568,18.72"  stroke="none" stroke-width="0"/>
     <polygon fill="black" points="19.296,18.72,19.296,18.864,20.016,18.864,20.016,19.008,20.304,19.008,20.304,19.152,20.736,19.152,20.736,19.296,20.88,19.296,20.88,19.44,21.168,19.44,21.168,19.584,21.312,19.584,21.312,19.728,22.752,19.728,22.752,19.584,23.04,19.584,23.04,19.44,23.184,19.44,23.184,19.296,23.472,19.296,23.472,19.152,23.76,19.152,23.76,19.008,24.192,19.008,24.192,18.864,24.768,18.864,24.768,18.72"  stroke="none" stroke-width="0"/>
     <polygon fill="black" points="26.496,18.72,26.496,18.864,27.216,18.864,27.216,19.008,27.504,19.008,27.504,19.152,27.936,19.152,27.936,19.296,28.08,19.296,28.08,19.44,28.368,19.44,28.368,19.584,28.512,19.584,28.512,19.728,29.952,19.728,29.952,19.584,30.24,19.584,30.24,19.44,30.384,19.44,30.384,19.296,30.672,19.296,30.672,19.152,30.96,19.152,30.96,19.008,31.392,19.008,31.392,18.864,31.968,18.864,31.968,18.72"  stroke="none" stroke-width="0"/>
     <polygon fill="black" points="33.696,18.72,33.696,18.864,34.416,18.864,34.416,19.008,34.704,19.008,34.704,19.152,35.136,19.152,35.136,19.296,35.28,19.296,35.28,19.44,35.568,19.44,35.568,19.584,35.712,19.584,35.712,19.728,37.152,19.728,37.152,19.584,37.44,19.584,37.44,19.44,37.584,19.44,37.584,19.296,37.872,19.296,37.872,19.152,38.16,19.152,38.16,19.008,38.592,19.008,38.592,18.864,39.168,18.864,39.168,18.72"  stroke="none" stroke-width="0"/>
     <polygon fill="black" points="40.896,18.72,40.896,18.864,41.616,18.864,41.616,19.008,41.904,19.008,41.904,19.152,42.336,19.152,42.336,19.296,42.48,19.296,42.48,19.44,42.768,19.44,42.768,19.584,42.912,19.584,42.912,19.728,44.352,19.728,44.352,19.584,44.64,19.584,44.64,19.44,44.784,19.44,44.784,19.296,45.072,19.296,45.072,19.152,45.36,19.152,45.36,19.008,45.792,19.008,45.792,18.864,46.368,18.864,46.368,18.72"  stroke="none" stroke-width="0"/>
     <polygon fill="black" points="48.096,18.72,48.096,18.864,48.816,18.864,48.816,19.008,49.104,19.008,49.104,19.152,49.536,19.152,49.536,19.296,49.68,19.296,49.68,19.44,49.968,19.44,49.968,19.584,50.112,19.584,50.112,19.728,51.552,19.728,51.552,19.584,51.84,19.584,51.84,19.44,51.984,19.44,51.984,19.296,52.272,19.296,52.272,19.152,52.56,19.152,52.56,19.008,52.992,19.008,52.992,18.864,53.568,18.864,53.568,18.72"  stroke="none" stroke-width="0"/>
     <polygon fill="black" points="55.296,18.72,55.296,18.864,56.016,18.864,56.016,19.008,56.304,19.008,56.304,19.152,56.736,19.152,56.736,19.296,56.88,19.296,56.88,19.44,57.168,19.44,57.168,19.584,57.312,19.584,57.312,19.728,58.752,19.728,58.752,19.584,59.04,19.584,59.04,19.44,59.184,19.44,59.184,19.296,59.472,19.296,59.472,19.152,59.76,19.152,59.76,19.008,60.192,19.008,60.192,18.864,60.768,18.864,60.768,18.72"  stroke="none" stroke-width="0"/>
     <polygon fill="black" points="62.496,18.72,62.496,18.864,63.216,18.864,63.216,19.008,63.504,19.008,63.504,19.152,63.936,19.152,63.936,19.296,64.08,19.296,64.08,19.44,64.368,19.44,64.368,19.584,64.512,19.584,64.512,19.728,65.952,19.728,65.952,19.584,66.24,19.584,66.24,19.44,66.384,19.44,66.384,19.296,66.672,19.296,66.672,19.152,66.96,19.152,66.96,19.008,67.392,19.008,67.392,18.864,67.968,18.864,67.968,18.72"  stroke="none" stroke-width="0"/>
     <g  id="connector0pad">
      <circle fill="black" cx="5.87576"  cy="5.49082" stroke="none" r="2.7" stroke-width="0"/>
     </g>
    </g>
   </g>
  </g>
  <g partID="347180">
   <g transform="translate(17.28,83.808)">
    <g  id="groundplane">
     <polygon fill="black" points="0,0,0,7.2,10.08,7.2,10.08,7.056,9.648,7.056,9.648,6.912,9.36,6.912,9.36,6.768,9.216,6.768,9.216,6.624,9.072,6.624,9.072,6.48,8.784,6.48,8.784,6.192,8.64,6.192,8.64,6.048,8.496,6.048,8.496,5.904,8.352,5.904,8.352,5.76,8.208,5.76,8.208,5.616,8.064,5.616,8.064,5.472,7.92,5.472,7.92,5.184,7.776,5.184,7.776,5.04,7.632,5.04,7.632,4.896,7.488,4.896,7.488,4.752,7.344,4.752,7.344,4.608,7.2,4.608,7.2,4.32,7.056,4.32,7.056,4.176,6.912,4.176,6.912,4.032,6.768,4.032,6.768,3.888,6.624,3.888,6.624,3.744,6.48,3.744,6.48,3.6,6.336,3.6,6.336,3.312,6.192,3.312,6.192,3.168,6.048,3.168,6.048,3.024,5.904,3.024,5.904,2.88,5.76,2.88,5.76,2.736,5.616,2.736,5.616,2.592,5.472,2.592,5.472,2.304,5.328,2.304,5.328,2.16,5.184,2.16,5.184,2.016,5.04,2.016,5.04,1.872,4.896,1.872,4.896,1.728,4.752,1.728,4.752,1.44,4.608,1.44,4.608,1.296,4.464,1.296,4.464,1.152,4.32,1.152,4.32,1.008,3.168,1.008,3.168,0.864,2.736,0.864,2.736,0.72,2.304,0.72,2.304,0.576,2.16,0.576,2.16,0.432,1.872,0.432,1.872,0.288,1.584,0.288,1.584,0.144,1.44,0.144,1.44,0"  stroke="none" stroke-width="0"/>
     <polygon fill="black" points="13.824,6.192,13.824,6.336,13.68,6.336,13.68,6.48,13.536,6.48,13.536,6.624,13.392,6.624,13.392,6.768,13.104,6.768,13.104,6.912,12.816,6.912,12.816,7.056,12.384,7.056,12.384,7.2,15.264,7.2,15.264,6.192"  stroke="none" stroke-width="0"/>
     <polygon fill="black" points="0,7.2,0,7.344,15.264,7.344,15.264,7.2"  stroke="none" stroke-width="0"/>
     <polygon fill="black" points="0,7.2,0,7.344,15.264,7.344,15.264,7.2"  stroke="none" stroke-width="0"/>
     <polygon fill="black" points="0,7.344,0,19.872,9.504,19.872,9.504,29.664,21.312,29.664,21.312,28.224,21.168,28.224,21.168,28.08,21.024,28.08,21.024,27.792,20.88,27.792,20.88,27.36,20.736,27.36,20.736,26.928,20.592,26.928,20.592,23.472,17.424,23.472,17.424,23.328,16.848,23.328,16.848,23.184,16.56,23.184,16.56,23.04,16.272,23.04,16.272,22.896,15.984,22.896,15.984,22.752,15.696,22.752,15.696,22.608,15.552,22.608,15.552,22.464,15.408,22.464,15.408,22.32,15.12,22.32,15.12,22.176,14.976,22.176,14.976,22.032,14.832,22.032,14.832,21.888,14.688,21.888,14.688,21.744,14.544,21.744,14.544,21.456,14.4,21.456,14.4,21.312,14.256,21.312,14.256,21.168,14.112,21.168,14.112,20.88,13.968,20.88,13.968,20.592,13.824,20.592,13.824,20.304,13.68,20.304,13.68,19.872,13.536,19.872,13.536,16.992,13.68,16.992,13.68,16.56,13.824,16.56,13.824,16.272,13.968,16.272,13.968,15.984,14.112,15.984,14.112,15.84,14.256,15.84,14.256,15.552,14.4,15.552,14.4,15.408,14.544,15.408,14.544,15.264,14.688,15.264,14.688,15.12,14.832,15.12,14.832,14.832,15.12,14.832,15.12,14.688,15.264,14.688,15.264,7.344"  stroke="none" stroke-width="0"/>
     <g  id="connector0pad">
      <circle fill="black" cx="5.20425"  cy="12.6742" stroke="none" r="2.7" stroke-width="0"/>
     </g>
    </g>
   </g>
  </g>
  <g partID="347190">
   <g transform="translate(37.872,118.8)">
    <g  id="groundplane">
     <polygon fill="black" points="7.632,0,7.632,0.144,7.488,0.144,7.488,0.288,7.344,0.288,7.344,0.432,7.2,0.432,7.2,0.576,6.912,0.576,6.912,0.72,6.624,0.72,6.624,0.864,6.192,0.864,6.192,1.008,2.16,1.008,2.16,2.448,2.304,2.448,2.304,2.736,2.448,2.736,2.448,3.024,2.592,3.024,2.592,3.456,2.736,3.456,2.736,3.888,2.88,3.888,2.88,6.192,2.736,6.192,2.736,6.768,2.592,6.768,2.592,7.056,2.448,7.056,2.448,7.344,2.304,7.344,2.304,7.632,2.16,7.632,2.16,7.776,2.016,7.776,2.016,8.064,1.872,8.064,1.872,8.208,1.728,8.208,1.728,8.352,1.584,8.352,1.584,8.496,1.44,8.496,1.44,8.64,1.296,8.64,1.296,8.784,1.152,8.784,1.152,8.928,1.008,8.928,1.008,27.936,0.864,27.936,0.864,28.224,0.72,28.224,0.72,28.512,0.576,28.512,0.576,28.8,0.432,28.8,0.432,28.944,0.288,28.944,0.288,29.088,0.144,29.088,0.144,29.232,0,29.232,0,30.672,9.072,30.672,9.072,0"  stroke="none" stroke-width="0"/>
     <g  id="connector0pad">
      <circle fill="black" cx="4.971"  cy="9.91879" stroke="none" r="2.7" stroke-width="0"/>
     </g>
    </g>
   </g>
  </g>
  <g partID="347200">
   <g transform="translate(103.68,120.816)">
    <g  id="groundplane">
     <g  id="connector0pad">
      <polygon fill="black" points="0,0,0,3.024,38.88,3.024,38.88,2.88,38.448,2.88,38.448,2.736,38.016,2.736,38.016,2.592,37.728,2.592,37.728,2.448,37.44,2.448,37.44,2.304,37.296,2.304,37.296,2.16,37.152,2.16,37.152,2.016,36.864,2.016,36.864,1.872,36.72,1.872,36.72,1.728,36.576,1.728,36.576,1.584,36.432,1.584,36.432,1.44,36.288,1.44,36.288,1.296,36.144,1.296,36.144,1.152,2.88,1.152,2.88,1.008,2.448,1.008,2.448,0.864,2.16,0.864,2.16,0.72,2.016,0.72,2.016,0.576,1.872,0.576,1.872,0.432,1.584,0.432,1.584,0.144,1.44,0.144,1.44,0"  stroke="none" stroke-width="0"/>
      <polygon fill="black" points="42.336,2.448,42.336,2.592,42.048,2.592,42.048,2.736,41.76,2.736,41.76,2.88,41.328,2.88,41.328,3.024,43.92,3.024,43.92,2.448"  stroke="none" stroke-width="0"/>
      <polygon fill="black" points="0,3.024,0,3.168,43.92,3.168,43.92,3.024"  stroke="none" stroke-width="0"/>
      <polygon fill="black" points="0,3.024,0,3.168,43.92,3.168,43.92,3.024"  stroke="none" stroke-width="0"/>
      <polygon fill="black" points="0,3.168,0,5.184,41.184,5.184,41.184,5.328,41.616,5.328,41.616,5.472,42.048,5.472,42.048,5.616,42.336,5.616,42.336,5.76,43.92,5.76,43.92,3.168"  stroke="none" stroke-width="0"/>
      <polygon fill="black" points="0,5.184,0,7.056,36.144,7.056,36.144,6.912,36.288,6.912,36.288,6.768,36.432,6.768,36.432,6.624,36.576,6.624,36.576,6.48,36.72,6.48,36.72,6.336,37.008,6.336,37.008,6.192,37.152,6.192,37.152,6.048,37.296,6.048,37.296,5.904,37.584,5.904,37.584,5.76,37.728,5.76,37.728,5.616,38.16,5.616,38.16,5.472,38.448,5.472,38.448,5.328,39.024,5.328,39.024,5.184"  stroke="none" stroke-width="0"/>
     </g>
    </g>
   </g>
  </g>
  <g partID="347210">
   <g transform="translate(3.744,119.808)">
    <g  id="groundplane">
     <polygon fill="black" points="7.488,0,7.488,1.44,7.632,1.44,7.632,1.728,7.776,1.728,7.776,2.016,7.92,2.016,7.92,2.304,8.064,2.304,8.064,2.736,8.208,2.736,8.208,5.328,8.064,5.328,8.064,5.76,7.92,5.76,7.92,6.192,7.776,6.192,7.776,6.48,7.632,6.48,7.632,6.624,7.488,6.624,7.488,6.912,7.344,6.912,7.344,8.496,7.488,8.496,7.488,8.64,7.632,8.64,7.632,8.928,7.776,8.928,7.776,9.216,7.92,9.216,7.92,9.504,8.064,9.504,8.064,9.936,8.208,9.936,8.208,12.528,8.064,12.528,8.064,12.96,7.92,12.96,7.92,13.392,7.776,13.392,7.776,13.68,7.632,13.68,7.632,13.824,7.488,13.824,7.488,14.112,7.344,14.112,7.344,14.256,7.2,14.256,7.2,14.4,7.056,14.4,7.056,14.544,6.912,14.544,6.912,14.832,6.624,14.832,6.624,14.976,6.48,14.976,6.48,15.12,6.336,15.12,6.336,15.264,6.192,15.264,6.192,15.408,6.048,15.408,6.048,15.552,5.76,15.552,5.76,15.696,5.472,15.696,5.472,15.84,5.184,15.84,5.184,15.984,4.896,15.984,4.896,16.128,4.464,16.128,4.464,16.272,28.8,16.272,28.8,7.92,28.656,7.92,28.656,7.776,28.512,7.776,28.512,7.632,28.368,7.632,28.368,7.488,28.224,7.488,28.224,7.344,28.08,7.344,28.08,7.056,27.936,7.056,27.936,6.912,27.792,6.912,27.792,6.768,27.648,6.768,27.648,6.48,27.504,6.48,27.504,6.192,27.36,6.192,27.36,5.904,27.216,5.904,27.216,5.472,27.072,5.472,27.072,2.592,27.216,2.592,27.216,2.16,27.36,2.16,27.36,1.872,27.504,1.872,27.504,1.584,27.648,1.584,27.648,1.44,27.792,1.44,27.792,0"  stroke="none" stroke-width="0"/>
     <polygon fill="black" points="0,15.984,0,16.272,2.016,16.272,2.016,16.128,1.584,16.128,1.584,15.984"  stroke="none" stroke-width="0"/>
     <polygon fill="black" points="0,16.272,0,16.416,28.8,16.416,28.8,16.272"  stroke="none" stroke-width="0"/>
     <polygon fill="black" points="0,16.272,0,16.416,28.8,16.416,28.8,16.272"  stroke="none" stroke-width="0"/>
     <polygon fill="black" points="0,16.416,0,20.592,4.32,20.592,4.32,20.736,4.752,20.736,4.752,20.88,5.184,20.88,5.184,21.024,5.472,21.024,5.472,21.168,5.76,21.168,5.76,21.312,5.904,21.312,5.904,21.456,6.192,21.456,6.192,21.6,6.336,21.6,6.336,21.744,6.48,21.744,6.48,21.888,6.624,21.888,6.624,22.032,6.768,22.032,6.768,22.176,6.912,22.176,6.912,22.32,7.056,22.32,7.056,22.464,28.8,22.464,28.8,16.416"  stroke="none" stroke-width="0"/>
     <polygon fill="black" points="0,20.592,0,20.88,1.584,20.88,1.584,20.736,2.16,20.736,2.16,20.592"  stroke="none" stroke-width="0"/>
     <g  id="connector0pad">
      <circle fill="black" cx="11.763"  cy="4.974" stroke="none" r="2.7" stroke-width="0"/>
     </g>
    </g>
   </g>
  </g>
  <g partID="347220">
   <g transform="translate(9.648,162)">
    <g  id="groundplane">
     <polygon fill="black" points="50.256,0,50.256,0.144,50.112,0.144,50.112,0.288,49.968,0.288,49.968,0.432,49.824,0.432,49.824,0.576,49.536,0.576,49.536,0.72,49.248,0.72,49.248,0.864,48.816,0.864,48.816,1.008,1.584,1.008,1.584,2.448,1.728,2.448,1.728,2.736,1.872,2.736,1.872,3.024,2.016,3.024,2.016,3.312,2.16,3.312,2.16,3.744,2.304,3.744,2.304,6.336,2.16,6.336,2.16,6.768,2.016,6.768,2.016,7.2,1.872,7.2,1.872,7.488,1.728,7.488,1.728,7.632,1.584,7.632,1.584,7.92,1.44,7.92,1.44,9.504,1.584,9.504,1.584,9.648,1.728,9.648,1.728,9.936,1.872,9.936,1.872,10.224,2.016,10.224,2.016,10.512,2.16,10.512,2.16,10.944,2.304,10.944,2.304,13.536,2.16,13.536,2.16,13.968,2.016,13.968,2.016,14.4,1.872,14.4,1.872,14.688,1.728,14.688,1.728,14.832,1.584,14.832,1.584,15.12,1.44,15.12,1.44,16.704,1.584,16.704,1.584,16.848,1.728,16.848,1.728,17.136,1.872,17.136,1.872,17.424,2.016,17.424,2.016,17.712,2.16,17.712,2.16,18.144,2.304,18.144,2.304,20.736,2.16,20.736,2.16,21.168,2.016,21.168,2.016,21.6,1.872,21.6,1.872,21.888,1.728,21.888,1.728,22.032,1.584,22.032,1.584,22.32,1.44,22.32,1.44,22.464,1.296,22.464,1.296,22.608,1.152,22.608,1.152,22.752,1.008,22.752,1.008,23.04,0.72,23.04,0.72,23.184,0.576,23.184,0.576,23.328,0.432,23.328,0.432,23.472,0.288,23.472,0.288,23.616,0.144,23.616,0.144,23.76,0,23.76,0,25.2,0.144,25.2,0.144,25.344,0.288,25.344,0.288,25.488,0.432,25.488,0.432,25.632,0.576,25.632,0.576,25.776,0.72,25.776,0.72,25.92,0.864,25.92,0.864,26.064,1.008,26.064,1.008,26.208,1.152,26.208,1.152,26.352,1.296,26.352,1.296,26.496,1.44,26.496,1.44,26.64,1.584,26.64,1.584,26.784,1.728,26.784,1.728,26.928,1.872,26.928,1.872,27.072,2.016,27.072,2.016,27.216,2.16,27.216,2.16,27.36,2.304,27.36,2.304,27.504,2.448,27.504,2.448,27.648,2.592,27.648,2.592,27.792,2.736,27.792,2.736,27.936,2.88,27.936,2.88,28.08,3.024,28.08,3.024,28.224,3.168,28.224,3.168,28.368,3.312,28.368,3.312,28.512,3.456,28.512,3.456,28.656,3.6,28.656,3.6,28.8,3.744,28.8,3.744,28.944,3.888,28.944,3.888,29.088,4.032,29.088,4.032,29.232,4.176,29.232,4.176,29.376,4.32,29.376,4.32,29.52,4.464,29.52,4.464,29.664,4.608,29.664,4.608,29.808,4.752,29.808,4.752,29.952,4.896,29.952,4.896,30.096,5.04,30.096,5.04,30.24,5.184,30.24,5.184,30.384,5.328,30.384,5.328,30.528,97.776,30.528,97.776,30.24,97.92,30.24,97.92,30.096,98.064,30.096,98.064,29.952,98.208,29.952,98.208,29.808,98.352,29.808,98.352,29.664,98.496,29.664,98.496,29.376,98.64,29.376,98.64,29.232,98.784,29.232,98.784,29.088,98.928,29.088,98.928,28.944,99.072,28.944,99.072,28.8,99.216,28.8,99.216,28.656,99.36,28.656,99.36,28.368,99.504,28.368,99.504,28.224,99.648,28.224,99.648,28.08,99.792,28.08,99.792,27.936,99.936,27.936,99.936,27.792,100.08,27.792,100.08,27.504,100.224,27.504,100.224,27.36,100.368,27.36,100.368,27.216,100.512,27.216,100.512,27.072,100.656,27.072,100.656,26.928,100.8,26.928,100.8,26.784,100.944,26.784,100.944,26.496,101.088,26.496,101.088,26.352,101.232,26.352,101.232,26.208,101.376,26.208,101.376,26.064,101.52,26.064,101.52,25.92,101.664,25.92,101.664,25.632,101.808,25.632,101.808,25.488,101.952,25.488,101.952,25.344,102.096,25.344,102.096,25.2,102.24,25.2,102.24,25.056,102.384,25.056,102.384,24.912,102.528,24.912,102.528,24.768,102.672,24.768,102.672,24.624,102.816,24.624,102.816,24.48,102.96,24.48,102.96,24.336,103.104,24.336,103.104,24.192,103.248,24.192,103.248,24.048,103.392,24.048,103.392,23.904,103.536,23.904,103.536,23.76,103.68,23.76,103.68,23.616,103.824,23.616,103.824,23.472,103.968,23.472,103.968,23.328,104.112,23.328,104.112,23.184,104.256,23.184,104.256,23.04,104.4,23.04,104.4,22.896,104.544,22.896,104.544,22.752,104.688,22.752,104.688,22.608,104.832,22.608,104.832,22.464,104.976,22.464,104.976,22.32,105.12,22.32,105.12,22.176,105.264,22.176,105.264,22.032,129.168,22.032,129.168,20.448,129.024,20.448,129.024,18.576,129.168,18.576,129.168,17.856,129.312,17.856,129.312,17.568,129.456,17.568,129.456,17.28,129.6,17.28,129.6,16.992,129.744,16.992,129.744,16.704,129.888,16.704,129.888,16.56,130.032,16.56,130.032,15.12,129.888,15.12,129.888,14.976,129.744,14.976,129.744,14.688,129.6,14.688,129.6,14.544,129.456,14.544,129.456,14.112,129.312,14.112,129.312,13.824,129.168,13.824,129.168,13.248,129.024,13.248,129.024,11.376,129.168,11.376,129.168,10.656,129.312,10.656,129.312,10.368,129.456,10.368,129.456,10.08,129.6,10.08,129.6,9.792,129.744,9.792,129.744,8.208,53.712,8.208,53.712,8.064,53.28,8.064,53.28,7.92,52.992,7.92,52.992,7.776,52.848,7.776,52.848,7.632,52.704,7.632,52.704,7.488,52.56,7.488,52.56,7.344,52.416,7.344,52.416,7.2,52.272,7.2,52.272,7.056,52.128,7.056,52.128,6.768,51.984,6.768,51.984,6.48,51.84,6.48,51.84,6.048,51.696,6.048,51.696,0"  stroke="none" stroke-width="0"/>
     <g  id="connector0pad">
      <circle fill="black" cx="5.94487"  cy="5.54318" stroke="none" r="2.7" stroke-width="0"/>
     </g>
    </g>
   </g>
  </g>
  <g partID="56060">
   <g transform="translate(146.234,51.5318)">
    <g transform="matrix(0,1,-1,0,0,0)">
     <g  id="copper0">
      <circle fill="none" cx="1.98"  cy="2.484" stroke="black" id="connector30pin" r="1.98" stroke-width="1.5"/>
      <circle fill="none" cx="9.18"  cy="2.484" stroke="black" id="connector31pin" r="1.98" stroke-width="1.5"/>
      <circle fill="none" cx="16.884"  cy="2.484" stroke="black" id="connector0pin" r="1.98" stroke-width="1.5"/>
      <circle fill="none" cx="24.084"  cy="2.484" stroke="black" id="connector1pin" r="1.98" stroke-width="1.5"/>
      <circle fill="none" cx="31.284"  cy="2.484" stroke="black" id="connector2pin" r="1.98" stroke-width="1.5"/>
      <circle fill="none" cx="38.485"  cy="2.484" stroke="black" id="connector3pin" r="1.98" stroke-width="1.5"/>
      <circle fill="none" cx="45.685"  cy="2.484" stroke="black" id="connector4pin" r="1.98" stroke-width="1.5"/>
      <circle fill="none" cx="52.884"  cy="2.484" stroke="black" id="connector5pin" r="1.98" stroke-width="1.5"/>
      <circle fill="none" cx="60.084"  cy="2.484" stroke="black" id="connector6pin" r="1.98" stroke-width="1.5"/>
      <circle fill="none" cx="67.284"  cy="2.484" stroke="black" id="connector7pin" r="1.98" stroke-width="1.5"/>
      <circle fill="none" cx="79.525"  cy="2.484" stroke="black" id="connector8pin" r="1.98" stroke-width="1.5"/>
      <circle fill="none" cx="86.725"  cy="2.484" stroke="black" id="connector9pin" r="1.98" stroke-width="1.5"/>
      <circle fill="none" cx="93.924"  cy="2.484" stroke="black" id="connector10pin" r="1.98" stroke-width="1.5"/>
      <circle fill="none" cx="101.124"  cy="2.484" stroke="black" id="connector11pin" r="1.98" stroke-width="1.5"/>
      <circle fill="none" cx="108.324"  cy="2.484" stroke="black" id="connector12pin" r="1.98" stroke-width="1.5"/>
      <circle fill="none" cx="115.525"  cy="2.484" stroke="black" id="connector13pin" r="1.98" stroke-width="1.5"/>
      <circle fill="none" cx="122.725"  cy="2.484" stroke="black" id="connector14pin" r="1.98" stroke-width="1.5"/>
      <circle fill="none" cx="129.924"  cy="2.484" stroke="black" id="connector15pin" r="1.98" stroke-width="1.5"/>
      <circle fill="none" cx="29.124"  cy="139.284" stroke="black" id="connector28pin" r="1.98" stroke-width="1.5"/>
      <circle fill="none" cx="36.324"  cy="139.284" stroke="black" id="connector29pin" r="1.98" stroke-width="1.5"/>
      <circle fill="none" cx="43.525"  cy="139.284" stroke="black" id="connector16pin" r="1.98" stroke-width="1.5"/>
      <circle fill="none" cx="50.725"  cy="139.284" stroke="black" id="connector17pin" r="1.98" stroke-width="1.5"/>
      <circle fill="none" cx="57.924"  cy="139.284" stroke="black" id="connector18pin" r="1.98" stroke-width="1.5"/>
      <circle fill="none" cx="65.124"  cy="139.284" stroke="black" id="connector19pin" r="1.98" stroke-width="1.5"/>
      <circle fill="none" cx="72.324"  cy="139.284" stroke="black" id="connector20pin" r="1.98" stroke-width="1.5"/>
      <circle fill="none" cx="79.525"  cy="139.284" stroke="black" id="connector21pin" r="1.98" stroke-width="1.5"/>
      <circle fill="none" cx="93.924"  cy="139.284" stroke="black" id="connector22pin" r="1.98" stroke-width="1.5"/>
      <circle fill="none" cx="101.124"  cy="139.284" stroke="black" id="connector23pin" r="1.98" stroke-width="1.5"/>
      <circle fill="none" cx="108.324"  cy="139.284" stroke="black" id="connector24pin" r="1.98" stroke-width="1.5"/>
      <circle fill="none" cx="115.525"  cy="139.284" stroke="black" id="connector25pin" r="1.98" stroke-width="1.5"/>
      <circle fill="none" cx="122.725"  cy="139.284" stroke="black" id="connector26pin" r="1.98" stroke-width="1.5"/>
      <circle fill="none" cx="129.924"  cy="139.284" stroke="black" id="connector27pin" r="1.98" stroke-width="1.5"/>
     </g>
    </g>
   </g>
  </g>
  <g partID="202890">
   <g transform="translate(60.2304,48.976)">
    <g transform="matrix(0,-1,1,0,0,0)">
     <g  id="copper0">
      <rect width="3.96" x="2.34" y="2.34" fill="none"  height="3.96" stroke="black" id="square" stroke-width="1.44"/>
      <circle fill="none" cx="4.32"  cy="4.32" stroke="black" id="connector0pin" r="1.98" stroke-width="1.44"/>
      <circle fill="none" cx="25.92"  cy="4.32" stroke="black" id="connector19pin" r="1.98" stroke-width="1.44"/>
      <circle fill="none" cx="4.32"  cy="11.52" stroke="black" id="connector1pin" r="1.98" stroke-width="1.44"/>
      <circle fill="none" cx="25.92"  cy="11.52" stroke="black" id="connector18pin" r="1.98" stroke-width="1.44"/>
      <circle fill="none" cx="4.32"  cy="18.72" stroke="black" id="connector2pin" r="1.98" stroke-width="1.44"/>
      <circle fill="none" cx="25.92"  cy="18.72" stroke="black" id="connector17pin" r="1.98" stroke-width="1.44"/>
      <circle fill="none" cx="4.32"  cy="25.92" stroke="black" id="connector3pin" r="1.98" stroke-width="1.44"/>
      <circle fill="none" cx="25.92"  cy="25.92" stroke="black" id="connector16pin" r="1.98" stroke-width="1.44"/>
      <circle fill="none" cx="4.32"  cy="33.12" stroke="black" id="connector4pin" r="1.98" stroke-width="1.44"/>
      <circle fill="none" cx="25.92"  cy="33.12" stroke="black" id="connector15pin" r="1.98" stroke-width="1.44"/>
      <circle fill="none" cx="4.32"  cy="40.32" stroke="black" id="connector5pin" r="1.98" stroke-width="1.44"/>
      <circle fill="none" cx="25.92"  cy="40.32" stroke="black" id="connector14pin" r="1.98" stroke-width="1.44"/>
      <circle fill="none" cx="4.32"  cy="47.52" stroke="black" id="connector6pin" r="1.98" stroke-width="1.44"/>
      <circle fill="none" cx="25.92"  cy="47.52" stroke="black" id="connector13pin" r="1.98" stroke-width="1.44"/>
      <circle fill="none" cx="4.32"  cy="54.72" stroke="black" id="connector7pin" r="1.98" stroke-width="1.44"/>
      <circle fill="none" cx="25.92"  cy="54.72" stroke="black" id="connector12pin" r="1.98" stroke-width="1.44"/>
      <circle fill="none" cx="4.32"  cy="61.92" stroke="black" id="connector8pin" r="1.98" stroke-width="1.44"/>
      <circle fill="none" cx="25.92"  cy="61.92" stroke="black" id="connector11pin" r="1.98" stroke-width="1.44"/>
      <circle fill="none" cx="4.32"  cy="69.12" stroke="black" id="connector9pin" r="1.98" stroke-width="1.44"/>
      <circle fill="none" cx="25.92"  cy="69.12" stroke="black" id="connector10pin" r="1.98" stroke-width="1.44"/>
     </g>
    </g>
   </g>
  </g>
  <g partID="208640">
   <g transform="translate(67.6464,56.356)">
    <g transform="matrix(0,1,-1,0,0,0)">
     <g  id="copper0">
      <g  id="copper1">
       <rect width="3.96" x="0.72" y="1.116" fill="none"  height="3.96" stroke="black" stroke-width="1.44"/>
       <circle fill="none" cx="2.7"  cy="3.096" stroke="black" r="1.98" id="connector0pin" stroke-width="1.44"/>
       <circle fill="none" cx="31.5"  cy="3.096" stroke="black" r="1.98" id="connector1pin" stroke-width="1.44"/>
      </g>
     </g>
    </g>
   </g>
  </g>
  <g partID="208500">
   <g transform="translate(74.8464,56.356)">
    <g transform="matrix(0,1,-1,0,0,0)">
     <g  id="copper0">
      <g  id="copper1">
       <rect width="3.96" x="0.72" y="1.116" fill="none"  height="3.96" stroke="black" stroke-width="1.44"/>
       <circle fill="none" cx="2.7"  cy="3.096" stroke="black" r="1.98" id="connector0pin" stroke-width="1.44"/>
       <circle fill="none" cx="31.5"  cy="3.096" stroke="black" r="1.98" id="connector1pin" stroke-width="1.44"/>
      </g>
     </g>
    </g>
   </g>
  </g>
  <g partID="208360">
   <g transform="translate(82.0464,56.356)">
    <g transform="matrix(0,1,-1,0,0,0)">
     <g  id="copper0">
      <g  id="copper1">
       <rect width="3.96" x="0.72" y="1.116" fill="none"  height="3.96" stroke="black" stroke-width="1.44"/>
       <circle fill="none" cx="2.7"  cy="3.096" stroke="black" r="1.98" id="connector0pin" stroke-width="1.44"/>
       <circle fill="none" cx="31.5"  cy="3.096" stroke="black" r="1.98" id="connector1pin" stroke-width="1.44"/>
      </g>
     </g>
    </g>
   </g>
  </g>
  <g partID="208220">
   <g transform="translate(89.2464,56.356)">
    <g transform="matrix(0,1,-1,0,0,0)">
     <g  id="copper0">
      <g  id="copper1">
       <rect width="3.96" x="0.72" y="1.116" fill="none"  height="3.96" stroke="black" stroke-width="1.44"/>
       <circle fill="none" cx="2.7"  cy="3.096" stroke="black" r="1.98" id="connector0pin" stroke-width="1.44"/>
       <circle fill="none" cx="31.5"  cy="3.096" stroke="black" r="1.98" id="connector1pin" stroke-width="1.44"/>
      </g>
     </g>
    </g>
   </g>
  </g>
  <g partID="208080">
   <g transform="translate(96.4464,56.356)">
    <g transform="matrix(0,1,-1,0,0,0)">
     <g  id="copper0">
      <g  id="copper1">
       <rect width="3.96" x="0.72" y="1.116" fill="none"  height="3.96" stroke="black" stroke-width="1.44"/>
       <circle fill="none" cx="2.7"  cy="3.096" stroke="black" r="1.98" id="connector0pin" stroke-width="1.44"/>
       <circle fill="none" cx="31.5"  cy="3.096" stroke="black" r="1.98" id="connector1pin" stroke-width="1.44"/>
      </g>
     </g>
    </g>
   </g>
  </g>
  <g partID="207940">
   <g transform="translate(103.646,56.356)">
    <g transform="matrix(0,1,-1,0,0,0)">
     <g  id="copper0">
      <g  id="copper1">
       <rect width="3.96" x="0.72" y="1.116" fill="none"  height="3.96" stroke="black" stroke-width="1.44"/>
       <circle fill="none" cx="2.7"  cy="3.096" stroke="black" r="1.98" id="connector0pin" stroke-width="1.44"/>
       <circle fill="none" cx="31.5"  cy="3.096" stroke="black" r="1.98" id="connector1pin" stroke-width="1.44"/>
      </g>
     </g>
    </g>
   </g>
  </g>
  <g partID="207800">
   <g transform="translate(110.846,56.356)">
    <g transform="matrix(0,1,-1,0,0,0)">
     <g  id="copper0">
      <g  id="copper1">
       <rect width="3.96" x="0.72" y="1.116" fill="none"  height="3.96" stroke="black" stroke-width="1.44"/>
       <circle fill="none" cx="2.7"  cy="3.096" stroke="black" r="1.98" id="connector0pin" stroke-width="1.44"/>
       <circle fill="none" cx="31.5"  cy="3.096" stroke="black" r="1.98" id="connector1pin" stroke-width="1.44"/>
      </g>
     </g>
    </g>
   </g>
  </g>
  <g partID="207660">
   <g transform="translate(118.046,56.356)">
    <g transform="matrix(0,1,-1,0,0,0)">
     <g  id="copper0">
      <g  id="copper1">
       <rect width="3.96" x="0.72" y="1.116" fill="none"  height="3.96" stroke="black" stroke-width="1.44"/>
       <circle fill="none" cx="2.7"  cy="3.096" stroke="black" r="1.98" id="connector0pin" stroke-width="1.44"/>
       <circle fill="none" cx="31.5"  cy="3.096" stroke="black" r="1.98" id="connector1pin" stroke-width="1.44"/>
      </g>
     </g>
    </g>
   </g>
  </g>
  <g partID="207360">
   <g transform="translate(125.246,56.356)">
    <g transform="matrix(0,1,-1,0,0,0)">
     <g  id="copper0">
      <g  id="copper1">
       <rect width="3.96" x="0.72" y="1.116" fill="none"  height="3.96" stroke="black" stroke-width="1.44"/>
       <circle fill="none" cx="2.7"  cy="3.096" stroke="black" r="1.98" id="connector0pin" stroke-width="1.44"/>
       <circle fill="none" cx="31.5"  cy="3.096" stroke="black" r="1.98" id="connector1pin" stroke-width="1.44"/>
      </g>
     </g>
    </g>
   </g>
  </g>
  <g partID="207050">
   <g transform="translate(132.446,56.356)">
    <g transform="matrix(0,1,-1,0,0,0)">
     <g  id="copper0">
      <g  id="copper1">
       <rect width="3.96" x="0.72" y="1.116" fill="none"  height="3.96" stroke="black" stroke-width="1.44"/>
       <circle fill="none" cx="2.7"  cy="3.096" stroke="black" r="1.98" id="connector0pin" stroke-width="1.44"/>
       <circle fill="none" cx="31.5"  cy="3.096" stroke="black" r="1.98" id="connector1pin" stroke-width="1.44"/>
      </g>
     </g>
    </g>
   </g>
  </g>
  <g partID="253850">
   <g transform="translate(10.8384,70.144)">
    <g  id="copper0">
     <rect width="5.184" x="0.72" y="0.72" fill="none"  height="5.184" stroke="black" id="rect20" stroke-width="1.44"/>
     <circle fill="none" cx="3.312"  cy="3.312" stroke="black" id="connector0pin" r="2.592" stroke-width="1.44"/>
     <circle fill="none" cx="24.912"  cy="3.312" stroke="black" id="connector1pin" r="2.592" stroke-width="1.44"/>
    </g>
   </g>
  </g>
  <g partID="254330">
   <g transform="translate(18.6544,111.356)">
    <g transform="matrix(0,-1,1,0,0,0)">
     <g  id="copper0">
      <g  id="copper1">
       <rect width="3.96" x="0.72" y="1.116" fill="none"  height="3.96" stroke="black" stroke-width="1.44"/>
       <circle fill="none" cx="2.7"  cy="3.096" stroke="black" r="1.98" id="connector0pin" stroke-width="1.44"/>
       <circle fill="none" cx="31.5"  cy="3.096" stroke="black" r="1.98" id="connector1pin" stroke-width="1.44"/>
      </g>
     </g>
    </g>
   </g>
  </g>
  <g partID="310190">
   <g transform="translate(37.9104,90.016)">
    <g  id="copper0">
     <rect width="4.176" x="2.952" y="2.952" fill="none"  height="4.176" stroke="black" id="square" stroke-width="1.44"/>
     <circle fill="none" cx="5.04"  cy="5.04" stroke="black" id="connector0pin" r="2.088" stroke-width="1.44"/>
     <circle fill="none" cx="5.04"  cy="12.24" stroke="black" id="connector1pin" r="2.088" stroke-width="1.44"/>
     <circle fill="none" cx="5.04"  cy="19.44" stroke="black" id="connector2pin" r="2.088" stroke-width="1.44"/>
    </g>
   </g>
  </g>
  <g partID="315900">
   <g transform="translate(40.7904,25.216)">
    <g transform="matrix(0,1,-1,0,0,0)">
     <g  id="copper0">
      <rect width="4.176" x="2.952" y="2.952" fill="none"  height="4.176" stroke="black" id="square" stroke-width="1.44"/>
      <circle fill="none" cx="5.04"  cy="5.04" stroke="black" id="connector0pin" r="2.088" stroke-width="1.44"/>
      <circle fill="none" cx="5.04"  cy="12.24" stroke="black" id="connector1pin" r="2.088" stroke-width="1.44"/>
      <circle fill="none" cx="5.04"  cy="19.44" stroke="black" id="connector2pin" r="2.088" stroke-width="1.44"/>
     </g>
    </g>
   </g>
  </g>
  <g partID="316010">
   <g transform="translate(18.6504,12.76)">
    <g  id="copper0">
     <g  id="copper1">
      <rect width="3.96" x="0.72" y="1.116" fill="none"  height="3.96" stroke="black" stroke-width="1.44"/>
      <circle fill="none" cx="2.7"  cy="3.096" stroke="black" r="1.98" id="connector0pin" stroke-width="1.44"/>
      <circle fill="none" cx="31.5"  cy="3.096" stroke="black" r="1.98" id="connector1pin" stroke-width="1.44"/>
     </g>
    </g>
   </g>
  </g>
  <g partID="338710">
   <g transform="translate(30.9984,97.504)">
    <g  id="copper0">
     <circle fill="none" cx="4.752"  cy="26.352" stroke="black" r="1.98" id="connector0pad" stroke-width="1.44"/>
     <circle fill="none" cx="4.752"  cy="4.752" stroke="black" r="1.98" id="connector1pad" stroke-width="1.44"/>
    </g>
   </g>
  </g>
  <g partID="249050">
   <line stroke="black" stroke-linecap="round" y1="118.816" x1="107.75" y2="89.6462" stroke-width="1.728" x2="107.75"/>
  </g>
  <g partID="242900">
   <line stroke="black" stroke-linecap="round" y1="118.816" x1="141.96" y2="118.816" stroke-width="1.728" x2="107.75"/>
  </g>
  <g partID="248870">
   <line stroke="black" stroke-linecap="round" y1="138.256" x1="93.3504" y2="89.646" stroke-width="1.728" x2="93.3504"/>
  </g>
  <g partID="244430">
   <line stroke="black" stroke-linecap="round" y1="138.257" x1="141.96" y2="138.256" stroke-width="1.728" x2="93.3504"/>
  </g>
  <g partID="248780">
   <line stroke="black" stroke-linecap="round" y1="145.456" x1="86.1504" y2="89.646" stroke-width="1.728" x2="86.1504"/>
  </g>
  <g partID="244560">
   <line stroke="black" stroke-linecap="round" y1="145.456" x1="141.96" y2="145.456" stroke-width="1.728" x2="86.1504"/>
  </g>
  <g partID="248690">
   <line stroke="black" stroke-linecap="round" y1="152.656" x1="78.9504" y2="89.646" stroke-width="1.728" x2="78.9504"/>
  </g>
  <g partID="244690">
   <line stroke="black" stroke-linecap="round" y1="152.656" x1="141.96" y2="152.656" stroke-width="1.728" x2="78.9504"/>
  </g>
  <g partID="248960">
   <line stroke="black" stroke-linecap="round" y1="131.056" x1="100.55" y2="89.646" stroke-width="1.728" x2="100.55"/>
  </g>
  <g partID="244820">
   <line stroke="black" stroke-linecap="round" y1="131.057" x1="141.96" y2="131.056" stroke-width="1.728" x2="100.55"/>
  </g>
  <g partID="248600">
   <line stroke="black" stroke-linecap="round" y1="159.856" x1="71.7504" y2="89.646" stroke-width="1.728" x2="71.7504"/>
  </g>
  <g partID="244950">
   <line stroke="black" stroke-linecap="round" y1="159.856" x1="141.96" y2="159.856" stroke-width="1.728" x2="71.7504"/>
  </g>
  <g partID="247810">
   <line stroke="black" stroke-linecap="round" y1="167.056" x1="64.5504" y2="89.646" stroke-width="1.728" x2="64.5504"/>
  </g>
  <g partID="245080">
   <line stroke="black" stroke-linecap="round" y1="167.057" x1="141.96" y2="167.056" stroke-width="1.728" x2="64.5504"/>
  </g>
  <g partID="245210">
   <line stroke="black" stroke-linecap="round" y1="57.266" x1="64.5504" y2="46.446" stroke-width="1.728" x2="64.5504"/>
  </g>
  <g partID="245320">
   <line stroke="black" stroke-linecap="round" y1="57.266" x1="71.7504" y2="46.446" stroke-width="1.728" x2="71.7504"/>
  </g>
  <g partID="245430">
   <line stroke="black" stroke-linecap="round" y1="57.266" x1="78.9504" y2="46.446" stroke-width="1.728" x2="78.9504"/>
  </g>
  <g partID="245700">
   <line stroke="black" stroke-linecap="round" y1="57.266" x1="93.3504" y2="46.446" stroke-width="1.728" x2="93.3504"/>
  </g>
  <g partID="245990">
   <line stroke="black" stroke-linecap="round" y1="57.266" x1="107.75" y2="46.446" stroke-width="1.728" x2="107.75"/>
  </g>
  <g partID="246100">
   <line stroke="black" stroke-linecap="round" y1="57.266" x1="114.95" y2="46.446" stroke-width="1.728" x2="114.95"/>
  </g>
  <g partID="246370">
   <line stroke="black" stroke-linecap="round" y1="57.266" x1="129.35" y2="46.446" stroke-width="1.728" x2="129.35"/>
  </g>
  <g partID="247150">
   <line stroke="black" stroke-linecap="round" y1="46.446" x1="100.55" y2="57.266" stroke-width="1.728" x2="100.55"/>
  </g>
  <g partID="252350">
   <line stroke="black" stroke-linecap="round" y1="57.266" x1="122.15" y2="46.446" stroke-width="1.728" x2="122.15"/>
  </g>
  <g partID="252950">
   <line stroke="black" stroke-linecap="round" y1="111.616" x1="114.95" y2="89.6462" stroke-width="1.728" x2="114.95"/>
  </g>
  <g partID="252460">
   <line stroke="black" stroke-linecap="round" y1="111.616" x1="141.96" y2="111.616" stroke-width="1.728" x2="114.95"/>
  </g>
  <g partID="253040">
   <line stroke="black" stroke-linecap="round" y1="104.416" x1="122.15" y2="89.6462" stroke-width="1.728" x2="122.15"/>
  </g>
  <g partID="252770">
   <line stroke="black" stroke-linecap="round" y1="104.416" x1="141.96" y2="104.416" stroke-width="1.728" x2="122.15"/>
  </g>
  <g partID="253130">
   <line stroke="black" stroke-linecap="round" y1="97.2168" x1="129.35" y2="89.646" stroke-width="1.728" x2="129.35"/>
  </g>
  <g partID="252860">
   <line stroke="black" stroke-linecap="round" y1="97.2168" x1="141.96" y2="97.2166" stroke-width="1.728" x2="129.35"/>
  </g>
  <g partID="293000">
   <line stroke="black" stroke-linecap="round" y1="75.616" x1="136.55" y2="8.65616" stroke-width="1.728" x2="136.55"/>
  </g>
  <g partID="292430">
   <line stroke="black" stroke-linecap="round" y1="8.656" x1="136.55" y2="8.656" stroke-width="1.728" x2="129.35"/>
  </g>
  <g partID="291860">
   <line stroke="black" stroke-linecap="round" y1="8.656" x1="129.35" y2="21.266" stroke-width="1.728" x2="129.35"/>
  </g>
  <g partID="291290">
   <line stroke="black" stroke-linecap="round" y1="75.6159" x1="141.96" y2="75.6158" stroke-width="1.728" x2="136.55"/>
  </g>
  <g partID="293650">
   <line stroke="black" stroke-linecap="round" y1="46.446" x1="86.1504" y2="57.266" stroke-width="1.728" x2="86.1504"/>
  </g>
  <g partID="299060">
   <line stroke="black" stroke-linecap="round" y1="109.456" x1="14.1504" y2="109.456" stroke-width="1.728" x2="8.7404"/>
  </g>
  <g partID="299070">
   <line stroke="black" stroke-linecap="round" y1="75.552" x1="14.1504" y2="109.456" stroke-width="1.728" x2="14.1504"/>
  </g>
  <g partID="310440">
   <line stroke="black" stroke-linecap="round" y1="102.256" x1="50.1504" y2="102.256" stroke-width="1.728" x2="44.7944"/>
  </g>
  <g partID="310370">
   <line stroke="black" stroke-linecap="round" y1="152.656" x1="50.1504" y2="102.256" stroke-width="1.728" x2="50.1504"/>
  </g>
  <g partID="310300">
   <line stroke="black" stroke-linecap="round" y1="152.656" x1="8.7404" y2="152.656" stroke-width="1.728" x2="50.1504"/>
  </g>
  <g partID="319500">
   <line stroke="black" stroke-linecap="round" y1="15.856" x1="64.5504" y2="15.856" stroke-width="1.728" x2="51.9404"/>
  </g>
  <g partID="317990">
   <line stroke="black" stroke-linecap="round" y1="21.266" x1="64.5504" y2="15.856" stroke-width="1.728" x2="64.5504"/>
  </g>
  <g partID="320130">
   <line stroke="black" stroke-linecap="round" y1="159.856" x1="57.3504" y2="95.056" stroke-width="1.728" x2="57.3504"/>
  </g>
  <g partID="319450">
   <line stroke="black" stroke-linecap="round" y1="95.056" x1="57.3504" y2="23.056" stroke-width="1.728" x2="57.3504"/>
  </g>
  <g partID="319400">
   <line stroke="black" stroke-linecap="round" y1="23.056" x1="57.3504" y2="23.056" stroke-width="1.728" x2="28.5504"/>
  </g>
  <g partID="319350">
   <line stroke="black" stroke-linecap="round" y1="23.056" x1="28.5504" y2="28.412" stroke-width="1.728" x2="28.5504"/>
  </g>
  <g partID="319300">
   <line stroke="black" stroke-linecap="round" y1="159.856" x1="8.7404" y2="159.856" stroke-width="1.728" x2="57.3504"/>
  </g>
  <g partID="320570">
   <line stroke="black" stroke-linecap="round" y1="51.856" x1="14.1504" y2="51.856" stroke-width="1.728" x2="35.7504"/>
  </g>
  <g partID="320280">
   <line stroke="black" stroke-linecap="round" y1="51.856" x1="35.7504" y2="32.1" stroke-width="1.728" x2="35.7504"/>
  </g>
  <g partID="320200">
   <line stroke="black" stroke-linecap="round" y1="73.456" x1="14.1504" y2="51.856" stroke-width="1.728" x2="14.1504"/>
  </g>
  <g partID="321640">
   <line stroke="black" stroke-linecap="round" y1="59.056" x1="14.1504" y2="59.056" stroke-width="1.728" x2="42.9504"/>
  </g>
  <g partID="321310">
   <line stroke="black" stroke-linecap="round" y1="59.056" x1="42.9504" y2="93.212" stroke-width="1.728" x2="42.9504"/>
  </g>
  <g partID="321200">
   <line stroke="black" stroke-linecap="round" y1="71.36" x1="14.1504" y2="59.056" stroke-width="1.728" x2="14.1504"/>
  </g>
  <g partID="322920">
   <line stroke="black" stroke-linecap="round" y1="23.056" x1="69.9604" y2="23.056" stroke-width="1.728" x2="66.3404"/>
  </g>
  <g partID="323450">
   <line stroke="black" stroke-linecap="round" y1="23.056" x1="77.1604" y2="23.056" stroke-width="1.728" x2="73.5404"/>
  </g>
  <g partID="323960">
   <line stroke="black" stroke-linecap="round" y1="23.056" x1="84.3604" y2="23.056" stroke-width="1.728" x2="80.7404"/>
  </g>
  <g partID="324450">
   <line stroke="black" stroke-linecap="round" y1="23.056" x1="91.5604" y2="23.056" stroke-width="1.728" x2="87.9404"/>
  </g>
  <g partID="324920">
   <line stroke="black" stroke-linecap="round" y1="23.056" x1="98.7604" y2="23.056" stroke-width="1.728" x2="95.1404"/>
  </g>
  <g partID="325370">
   <line stroke="black" stroke-linecap="round" y1="23.056" x1="105.96" y2="23.056" stroke-width="1.728" x2="102.34"/>
  </g>
  <g partID="325800">
   <line stroke="black" stroke-linecap="round" y1="23.056" x1="113.16" y2="23.056" stroke-width="1.728" x2="109.54"/>
  </g>
  <g partID="326210">
   <line stroke="black" stroke-linecap="round" y1="23.056" x1="120.36" y2="23.056" stroke-width="1.728" x2="116.74"/>
  </g>
  <g partID="326600">
   <line stroke="black" stroke-linecap="round" y1="23.056" x1="127.56" y2="23.056" stroke-width="1.728" x2="123.94"/>
  </g>
  <g partID="332740">
   <line stroke="black" stroke-linecap="round" y1="116.656" x1="21.3504" y2="116.656" stroke-width="1.728" x2="8.7404"/>
  </g>
  <g partID="332350">
   <line stroke="black" stroke-linecap="round" y1="110.444" x1="21.661" y2="116.656" stroke-width="1.728" x2="21.3504"/>
  </g>
  <g partID="333560">
   <line stroke="black" stroke-linecap="round" y1="116.656" x1="42.9504" y2="111.3" stroke-width="1.728" x2="42.9504"/>
  </g>
  <g partID="333130">
   <line stroke="black" stroke-linecap="round" y1="116.656" x1="8.7404" y2="116.656" stroke-width="1.728" x2="42.9504"/>
  </g>
  <g partID="338200">
   <line stroke="black" stroke-linecap="round" y1="28.6067" x1="27.7257" y2="17.457" stroke-width="1.728" x2="22.1509"/>
  </g>
  <g partID="345950">
   <line stroke="black" stroke-linecap="round" y1="145.456" x1="35.7504" y2="125.646" stroke-width="1.728" x2="35.7504"/>
  </g>
  <g partID="339840">
   <line stroke="black" stroke-linecap="round" y1="145.456" x1="8.7404" y2="145.456" stroke-width="1.728" x2="35.7504"/>
  </g>
  <g partID="343540">
   <line stroke="black" stroke-linecap="round" y1="100.466" x1="35.7504" y2="75.552" stroke-width="1.728" x2="35.7504"/>
  </g>
  <g partID="346540">
   <line stroke="black" stroke-linecap="round" y1="87.856" x1="28.5504" y2="75.3307" stroke-width="1.728" x2="34.813"/>
  </g>
  <g partID="344070">
   <line stroke="black" stroke-linecap="round" y1="81.2199" x1="22.9097" y2="87.856" stroke-width="1.728" x2="28.5504"/>
  </g>
 </g>
</svg>
